<svg width="1440" height="86" viewBox="0 0 1440 86" fill="none" xmlns="http://www.w3.org/2000/svg">
<path fill-rule="evenodd" clip-rule="evenodd" d="M125.001 2H130.359H194.644H200.001V82L162.501 64.3059L125.001 82V2Z" fill="#5A7B22"/>
<path fill-rule="evenodd" clip-rule="evenodd" d="M247.001 2H252.359H316.644H322.001V82L284.501 64.3059L247.001 82V2Z" fill="#1C465C"/>
<path fill-rule="evenodd" clip-rule="evenodd" d="M364.001 2H369.359H433.644H439.001V82L401.501 64.3059L364.001 82V2Z" fill="#38756E"/>
<path fill-rule="evenodd" clip-rule="evenodd" d="M481.001 2H486.359H550.644H556.001V82L518.501 64.3059L481.001 82V2Z" fill="#356B2A"/>
<path fill-rule="evenodd" clip-rule="evenodd" d="M875.001 6H880.43H945.573H951.001V86L913.001 68.3059L875.001 86V6Z" fill="#356B2A"/>
<path fill-rule="evenodd" clip-rule="evenodd" d="M994.001 6H999.573H1066.43H1072V86L1033 68.3059L994.001 86V6Z" fill="#EC910D"/>
<path fill-rule="evenodd" clip-rule="evenodd" d="M1113 3H1118.57H1185.43H1191V83L1152 65.3059L1113 83V3Z" fill="#C42714"/>
<path fill-rule="evenodd" clip-rule="evenodd" d="M1226 2H1231.57H1298.43H1304V82L1265 64.3059L1226 82V2Z" fill="#38756E"/>
<line y1="2.5" x2="1440" y2="2.5" stroke="#5D3E1F" stroke-width="5"/>
</svg>
