<svg width="24" height="24" viewBox="0 0 24 24" fill="none" xmlns="http://www.w3.org/2000/svg">
<path d="M5.97224 14.0483H17.9168V12.0575H5.97224V14.0483ZM5.97224 11.0622H17.9168V9.07141H5.97224V11.0622ZM5.97224 8.07603H17.9168V6.08527H5.97224V8.07603ZM21.8983 22.0113L17.9168 18.0298H3.98148C3.43402 18.0298 2.96536 17.8349 2.57551 17.445C2.18565 17.0552 1.99072 16.5865 1.99072 16.0391V4.09452C1.99072 3.54706 2.18565 3.0784 2.57551 2.68854C2.96536 2.29869 3.43402 2.10376 3.98148 2.10376H19.9075C20.455 2.10376 20.9236 2.29869 21.3135 2.68854C21.7034 3.0784 21.8983 3.54706 21.8983 4.09452V22.0113ZM3.98148 16.0391H18.7628L19.9075 17.1589V4.09452H3.98148V16.0391Z" fill="#1D1B20"/>
</svg>
