<svg width="37" height="37" viewBox="0 0 37 37" fill="none" xmlns="http://www.w3.org/2000/svg">
<path d="M7.61182 29.0334H9.74932L24.4118 14.3709L22.2743 12.2334L7.61182 26.8959V29.0334ZM4.61182 32.0334V25.6584L24.4118 5.89595C24.7118 5.62095 25.0431 5.40845 25.4056 5.25845C25.7681 5.10845 26.1493 5.03345 26.5493 5.03345C26.9493 5.03345 27.3368 5.10845 27.7118 5.25845C28.0868 5.40845 28.4118 5.63345 28.6868 5.93345L30.7493 8.03345C31.0493 8.30845 31.2681 8.63345 31.4056 9.00845C31.5431 9.38345 31.6118 9.75845 31.6118 10.1334C31.6118 10.5334 31.5431 10.9147 31.4056 11.2772C31.2681 11.6397 31.0493 11.9709 30.7493 12.2709L10.9868 32.0334H4.61182ZM23.3243 13.3209L22.2743 12.2334L24.4118 14.3709L23.3243 13.3209Z" fill="#F4E9C3"/>
</svg>
