<svg width="44" height="41" viewBox="0 0 44 41" fill="none" xmlns="http://www.w3.org/2000/svg">
<path d="M17.6393 12.6872C17.6393 11.5275 16.6991 10.5872 15.5393 10.5872C14.3796 10.5872 13.4394 11.5275 13.4394 12.6872H17.6393ZM30.5585 12.6872C30.5585 11.5275 29.6183 10.5872 28.4585 10.5872C27.2988 10.5872 26.3585 11.5275 26.3585 12.6872H30.5585ZM13.4397 12.6512C13.4198 13.8108 14.3437 14.767 15.5032 14.7869C16.663 14.8069 17.6192 13.883 17.6391 12.7233L13.4397 12.6512ZM17.6671 11.0937C17.6869 9.93409 16.7632 8.97789 15.6035 8.95796C14.4439 8.93802 13.4877 9.86194 13.4677 11.0216L17.6671 11.0937ZM17.5763 13.1981C17.8586 12.0732 17.1754 10.9325 16.0503 10.6503C14.9253 10.3682 13.7847 11.0514 13.5025 12.1764L17.5763 13.1981ZM15.0997 14.4401L17.1317 14.9706L17.1367 14.9509L15.0997 14.4401ZM6.39566 16.3796C5.44259 15.7187 4.13421 15.9555 3.47332 16.9085C2.81244 17.8616 3.04929 19.1701 4.00238 19.8309L6.39566 16.3796ZM7.29891 18.1268C7.31081 16.9671 6.38028 16.0172 5.22055 16.0054C4.06079 15.9935 3.11103 16.9239 3.09913 18.0837L7.29891 18.1268ZM5.04502 33.1329L7.14488 33.1581L7.14491 33.1544L5.04502 33.1329ZM16.3989 40.9001C17.5587 40.9001 18.4989 39.9598 18.4989 38.8001C18.4989 37.6403 17.5587 36.7001 16.3989 36.7001V40.9001ZM3.99715 19.8273C4.94822 20.4911 6.25731 20.2582 6.92107 19.307C7.58487 18.3561 7.35197 17.0469 6.40089 16.3832L3.99715 19.8273ZM2.62022 11.0576L0.651651 10.3264C0.628299 10.3893 0.607971 10.4532 0.590751 10.518L2.62022 11.0576ZM4.95822 4.76325L6.92682 5.49447C6.94706 5.43998 6.96501 5.38468 6.98066 5.32868L4.95822 4.76325ZM8.06342 2.40005V0.300049H8.05734L8.06342 2.40005ZM35.9317 2.40005L35.9379 0.300049H35.9317V2.40005ZM39.0369 4.76325L37.0145 5.32871C37.0302 5.38457 37.0481 5.43979 37.0683 5.49419L39.0369 4.76325ZM41.3749 11.0605L43.4047 10.521C43.3873 10.4562 43.3671 10.3923 43.3436 10.3295L41.3749 11.0605ZM37.5963 16.3839C36.6455 17.0482 36.4133 18.3572 37.0775 19.3081C37.7419 20.2587 39.0512 20.4908 40.0018 19.8267L37.5963 16.3839ZM14.299 38.8001C14.299 39.9598 15.2392 40.9001 16.3989 40.9001C17.5587 40.9001 18.4989 39.9598 18.4989 38.8001H14.299ZM25.4989 38.8001C25.4989 39.9598 26.4392 40.9001 27.5989 40.9001C28.7587 40.9001 29.6989 39.9598 29.6989 38.8001H25.4989ZM16.3989 36.7001C15.2392 36.7001 14.299 37.6403 14.299 38.8001C14.299 39.9598 15.2392 40.9001 16.3989 40.9001V36.7001ZM27.5989 40.9001C28.7587 40.9001 29.6989 39.9598 29.6989 38.8001C29.6989 37.6403 28.7587 36.7001 27.5989 36.7001V40.9001ZM26.3588 12.7125C26.3728 13.8722 27.3243 14.8011 28.484 14.7871C29.6435 14.7731 30.5725 13.8217 30.5585 12.662L26.3588 12.7125ZM30.5389 11.0324C30.5249 9.87269 29.5735 8.94385 28.4137 8.95779C27.254 8.97176 26.3252 9.9232 26.3392 11.0829L30.5389 11.0324ZM30.5034 12.1741C30.22 11.0494 29.0785 10.3675 27.954 10.6509C26.8292 10.9343 26.1471 12.0758 26.4308 13.2004L30.5034 12.1741ZM28.9065 14.4316L26.8701 14.9448L26.8746 14.9615L28.9065 14.4316ZM39.9929 19.8328C40.9468 19.1737 41.1859 17.8659 40.5268 16.9116C39.8674 15.9573 38.5595 15.7182 37.6053 16.3775L39.9929 19.8328ZM40.8989 18.0848C40.8877 16.925 39.9385 15.9941 38.7788 16.0054C37.619 16.0166 36.688 16.9659 36.6992 18.1257L40.8989 18.0848ZM38.9445 33.1329L36.8448 33.1533V33.1581L38.9445 33.1329ZM27.5989 36.7001C26.4392 36.7001 25.4989 37.6403 25.4989 38.8001C25.4989 39.9598 26.4392 40.9001 27.5989 40.9001V36.7001ZM13.4394 12.6872C13.4394 17.4145 17.2717 21.2469 21.9989 21.2469V17.0468C19.5912 17.0468 17.6393 15.095 17.6393 12.6872H13.4394ZM21.9989 21.2469C26.7265 21.2469 30.5585 17.4145 30.5585 12.6872H26.3585C26.3585 15.095 24.4067 17.0468 21.9989 17.0468V21.2469ZM17.6391 12.7233L17.6671 11.0937L13.4677 11.0216L13.4397 12.6512L17.6391 12.7233ZM13.5025 12.1764L13.0629 13.9292L17.1367 14.9509L17.5763 13.1981L13.5025 12.1764ZM13.0679 13.9095C12.7099 15.2809 11.7047 16.3911 10.3754 16.883L11.8335 20.8218C14.4491 19.8536 16.4272 17.6693 17.1317 14.9706L13.0679 13.9095ZM10.3754 16.883C9.04619 17.3753 7.56043 17.1871 6.39566 16.3796L4.00238 19.8309C6.29432 21.4202 9.21794 21.7903 11.8335 20.8218L10.3754 16.883ZM3.09913 18.0837L2.94513 33.1113L7.14491 33.1544L7.29891 18.1268L3.09913 18.0837ZM2.94519 33.1077C2.92046 35.1657 3.72082 37.148 5.16752 38.6122L8.15503 35.6601C7.49743 34.9946 7.13365 34.0935 7.14488 33.1581L2.94519 33.1077ZM5.16752 38.6122C6.61425 40.0763 8.58691 40.9003 10.6452 40.9001L10.645 36.7001C9.70943 36.7001 8.81261 36.3257 8.15503 35.6601L5.16752 38.6122ZM10.6452 40.9001H16.3989V36.7001H10.645L10.6452 40.9001ZM6.40089 16.3832C4.86949 15.3144 4.16977 13.4021 4.64969 11.5973L0.590751 10.518C-0.342797 14.0286 1.01828 17.7482 3.99715 19.8273L6.40089 16.3832ZM4.58882 11.7889L6.92682 5.49447L2.98965 4.03203L0.651651 10.3264L4.58882 11.7889ZM6.98066 5.32868C7.1173 4.83997 7.56202 4.50151 8.06949 4.50005L8.05734 0.300049C5.67032 0.306965 3.57852 1.89893 2.93578 4.19782L6.98066 5.32868ZM8.06342 4.50005H35.9317V0.300049H8.06342V4.50005ZM35.9259 4.50005C36.4332 4.50151 36.8779 4.83997 37.0145 5.32871L41.0594 4.19779C40.4168 1.89893 38.3249 0.306965 35.9379 0.300049L35.9259 4.50005ZM37.0683 5.49419L39.4063 11.7914L43.3436 10.3295L41.0056 4.03231L37.0683 5.49419ZM39.3455 11.5999C39.8249 13.4037 39.126 15.3148 37.5963 16.3839L40.0018 19.8267C42.9779 17.7471 44.3371 14.0297 43.4047 10.521L39.3455 11.5999ZM18.4989 38.8001V30.4001H14.299V38.8001H18.4989ZM18.4989 30.4001C18.4989 30.0134 18.8125 29.7001 19.1989 29.7001V25.5001C16.4927 25.5001 14.299 27.6939 14.299 30.4001H18.4989ZM19.1989 29.7001H24.7989V25.5001H19.1989V29.7001ZM24.7989 29.7001C25.1856 29.7001 25.4989 30.0134 25.4989 30.4001H29.6989C29.6989 27.6939 27.5051 25.5001 24.7989 25.5001V29.7001ZM25.4989 30.4001V38.8001H29.6989V30.4001H25.4989ZM16.3989 40.9001H27.5989V36.7001H16.3989V40.9001ZM30.5585 12.662L30.5389 11.0324L26.3392 11.0829L26.3588 12.7125L30.5585 12.662ZM26.4308 13.2004L26.8701 14.9448L30.943 13.9185L30.5034 12.1741L26.4308 13.2004ZM26.8746 14.9615C27.5777 17.6584 29.5525 19.8424 32.1652 20.8126L33.6273 16.8755C32.2996 16.3823 31.2961 15.2724 30.9388 13.9018L26.8746 14.9615ZM32.1652 20.8126C34.7779 21.7831 37.6997 21.4174 39.9929 19.8328L37.6053 16.3775C36.4399 17.1827 34.9551 17.3686 33.6273 16.8755L32.1652 20.8126ZM36.6992 18.1257L36.8448 33.1533L41.0445 33.1124L40.8989 18.0848L36.6992 18.1257ZM36.8448 33.1581C36.856 34.0935 36.4923 34.9946 35.8346 35.6601L38.8222 38.6122C40.2689 37.148 41.0692 35.1657 41.0445 33.1077L36.8448 33.1581ZM35.8346 35.6601C35.1771 36.3257 34.2803 36.7001 33.3448 36.7001L33.3445 40.9001C35.4028 40.9003 37.3754 40.0763 38.8222 38.6122L35.8346 35.6601ZM33.3448 36.7001H27.5989V40.9001H33.3445L33.3448 36.7001Z" fill="black"/>
</svg>
