<svg width="36" height="9" viewBox="0 0 36 9" fill="none" xmlns="http://www.w3.org/2000/svg">
<path d="M18 6.51836C19.1046 6.51836 20 5.61707 20 4.50528C20 3.39348 19.1046 2.49219 18 2.49219C16.8954 2.49219 16 3.39348 16 4.50528C16 5.61707 16.8954 6.51836 18 6.51836Z" stroke="#1E1E1E" stroke-width="4" stroke-linecap="round" stroke-linejoin="round"/>
<path d="M32 6.51836C33.1046 6.51836 34 5.61707 34 4.50528C34 3.39348 33.1046 2.49219 32 2.49219C30.8954 2.49219 30 3.39348 30 4.50528C30 5.61707 30.8954 6.51836 32 6.51836Z" stroke="#1E1E1E" stroke-width="4" stroke-linecap="round" stroke-linejoin="round"/>
<path d="M4 6.51836C5.10457 6.51836 6 5.61707 6 4.50528C6 3.39348 5.10457 2.49219 4 2.49219C2.89543 2.49219 2 3.39348 2 4.50528C2 5.61707 2.89543 6.51836 4 6.51836Z" stroke="#1E1E1E" stroke-width="4" stroke-linecap="round" stroke-linejoin="round"/>
</svg>
