<svg width="48" height="49" viewBox="0 0 48 49" fill="none" xmlns="http://www.w3.org/2000/svg">
<path d="M24 26.5184C25.1046 26.5184 26 25.6171 26 24.5053C26 23.3935 25.1046 22.4922 24 22.4922C22.8954 22.4922 22 23.3935 22 24.5053C22 25.6171 22.8954 26.5184 24 26.5184Z" stroke="#1E1E1E" stroke-width="4" stroke-linecap="round" stroke-linejoin="round"/>
<path d="M38 26.5184C39.1046 26.5184 40 25.6171 40 24.5053C40 23.3935 39.1046 22.4922 38 22.4922C36.8954 22.4922 36 23.3935 36 24.5053C36 25.6171 36.8954 26.5184 38 26.5184Z" stroke="#1E1E1E" stroke-width="4" stroke-linecap="round" stroke-linejoin="round"/>
<path d="M10 26.5184C11.1046 26.5184 12 25.6171 12 24.5053C12 23.3935 11.1046 22.4922 10 22.4922C8.89543 22.4922 8 23.3935 8 24.5053C8 25.6171 8.89543 26.5184 10 26.5184Z" stroke="#1E1E1E" stroke-width="4" stroke-linecap="round" stroke-linejoin="round"/>
</svg>
