<svg width="64" height="64" viewBox="0 0 64 64" fill="none" xmlns="http://www.w3.org/2000/svg">
<path d="M30 54C30 54.5304 29.7893 55.0391 29.4142 55.4142C29.0391 55.7893 28.5304 56 28 56H12C11.4696 56 10.9609 55.7893 10.5858 55.4142C10.2107 55.0391 10 54.5304 10 54V10C10 9.46957 10.2107 8.96086 10.5858 8.58579C10.9609 8.21071 11.4696 8 12 8H28C28.5304 8 29.0391 8.21071 29.4142 8.58579C29.7893 8.96086 30 9.46957 30 10C30 10.5304 29.7893 11.0391 29.4142 11.4142C29.0391 11.7893 28.5304 12 28 12H14V52H28C28.5304 52 29.0391 52.2107 29.4142 52.5858C29.7893 52.9609 30 53.4696 30 54ZM57.415 30.585L47.415 20.585C47.0397 20.2097 46.5307 19.9989 46 19.9989C45.4693 19.9989 44.9603 20.2097 44.585 20.585C44.2097 20.9603 43.9989 21.4693 43.9989 22C43.9989 22.5307 44.2097 23.0397 44.585 23.415L51.1725 30H28C27.4696 30 26.9609 30.2107 26.5858 30.5858C26.2107 30.9609 26 31.4696 26 32C26 32.5304 26.2107 33.0391 26.5858 33.4142C26.9609 33.7893 27.4696 34 28 34H51.1725L44.585 40.585C44.2097 40.9603 43.9989 41.4693 43.9989 42C43.9989 42.5307 44.2097 43.0397 44.585 43.415C44.9603 43.7903 45.4693 44.0011 46 44.0011C46.5307 44.0011 47.0397 43.7903 47.415 43.415L57.415 33.415C57.601 33.2293 57.7485 33.0087 57.8491 32.7659C57.9498 32.5231 58.0016 32.2628 58.0016 32C58.0016 31.7372 57.9498 31.4769 57.8491 31.2341C57.7485 30.9913 57.601 30.7707 57.415 30.585Z" fill="#F5DFB6"/>
</svg>
